<svg xmlns="http://www.w3.org/2000/svg" version="1.1" xmlns:xlink="http://www.w3.org/1999/xlink" xmlns:svgjs="http://svgjs.com/svgjs" width="1366" height="768" preserveAspectRatio="none" viewBox="0 0 1366 768"><g mask="url(&quot;#SvgjsMask1024&quot;)" fill="none"><path d="M729.223,489.528C799.804,487.222,858.933,438.918,891.051,376.025C920.355,318.642,912.192,251.348,879.085,196.071C846.972,142.453,791.705,107.303,729.223,105.827C664.026,104.287,601.885,133.86,566.573,188.687C527.996,248.584,514.095,324.563,547.979,387.235C583.341,452.642,654.909,491.956,729.223,489.528" fill="rgba(255, 255, 255, 0.4)" class="triangle-float1"></path><path d="M92.499,790.352C142.09,786.675,178.355,747.536,201.129,703.33C221.764,663.276,221.998,617.743,202.299,577.22C179.378,530.07,144.819,483.206,92.499,479.867C35.619,476.237,-15.946,512.189,-44.59,561.464C-73.388,611.004,-77.589,672.655,-48.146,721.814C-19.425,769.768,36.755,794.486,92.499,790.352" fill="rgba(255, 255, 255, 0.4)" class="triangle-float1"></path><path d="M934.221,302.588C992.179,304.273,1057.388,299.898,1087.978,250.642C1119.709,199.549,1100.92,135.073,1070.466,83.209C1040.479,32.141,993.428,-12.478,934.221,-11.206C876.619,-9.969,835.467,38.342,807.75,88.852C781.318,137.02,767.226,194.844,795.206,242.13C822.786,288.74,880.085,301.014,934.221,302.588" fill="rgba(255, 255, 255, 0.4)" class="triangle-float3"></path><path d="M1122.969,649.328C1191.808,650.586,1254.539,611.962,1289.769,552.808C1325.878,492.178,1332.674,416.914,1297.992,355.457C1262.752,293.012,1194.513,252.482,1122.969,257.24C1057.756,261.577,1015.183,318.837,984.106,376.333C954.974,430.229,938.626,492.294,966.403,546.9C996.709,606.478,1056.137,648.107,1122.969,649.328" fill="rgba(255, 255, 255, 0.4)" class="triangle-float1"></path><path d="M620.107,730.866C678.051,733.018,735.405,709.48,766.326,660.429C799.321,608.089,804.473,541.009,773.586,487.398C742.654,433.71,682.058,405.525,620.107,406.638C560.108,407.716,503.899,439.674,475.891,492.746C449.503,542.75,462.269,601.864,491.559,650.226C519.644,696.598,565.93,728.854,620.107,730.866" fill="rgba(255, 255, 255, 0.4)" class="triangle-float1"></path><path d="M245.353,910.75C308.139,913.315,370.391,887.642,403.819,834.433C439.385,777.822,445.293,704.691,410.784,647.43C377.216,591.731,310.383,570.974,245.353,571.492C181.38,572.002,115.182,593.934,84.428,650.032C54.563,704.508,75.201,769.474,107.832,822.34C138.511,872.043,186.993,908.366,245.353,910.75" fill="rgba(255, 255, 255, 0.4)" class="triangle-float1"></path></g><defs><mask id="SvgjsMask1024"><rect width="1366" height="768" fill="#ffffff"></rect></mask><style>
            @keyframes float1 {
                0%{transform: translate(0, 0)}
                50%{transform: translate(-10px, 0)}
                100%{transform: translate(0, 0)}
            }

            .triangle-float1 {
                animation: float1 5s infinite;
            }

            @keyframes float2 {
                0%{transform: translate(0, 0)}
                50%{transform: translate(-5px, -5px)}
                100%{transform: translate(0, 0)}
            }

            .triangle-float2 {
                animation: float2 4s infinite;
            }

            @keyframes float3 {
                0%{transform: translate(0, 0)}
                50%{transform: translate(0, -10px)}
                100%{transform: translate(0, 0)}
            }

            .triangle-float3 {
                animation: float3 6s infinite;
            }
        </style></defs></svg>